<svg xmlns="http://www.w3.org/2000/svg" xmlns:xlink="http://www.w3.org/1999/xlink" width="1024" zoomAndPan="magnify" viewBox="0 0 768 767.999994" height="1024" preserveAspectRatio="xMidYMid meet" version="1.0"><defs><g/><clipPath id="4ee5a2c1ac"><rect x="0" width="443" y="0" height="140"/></clipPath><clipPath id="fccc4fdca3"><rect x="0" width="439" y="0" height="139"/></clipPath><clipPath id="dd13b449f3"><rect x="0" width="87" y="0" height="250"/></clipPath><clipPath id="34c604ab10"><rect x="0" width="87" y="0" height="250"/></clipPath></defs><g transform="matrix(1, 0, 0, 1, 161, 84)"><g clip-path="url(#4ee5a2c1ac)"><g fill="#242121" fill-opacity="1"><g transform="translate(29.020482, 128.212019)"><g><path d="M -18.65625 -10.90625 C -17.976562 -11.75 -17.5625 -12.691406 -17.40625 -13.734375 C -17.25 -14.773438 -17.34375 -15.789062 -17.6875 -16.78125 C -18.03125 -17.78125 -18.597656 -18.597656 -19.390625 -19.234375 L -18.953125 -19.765625 L -14.4375 -16.15625 L -11.875 -19.359375 L -11.375 -18.953125 L -13.9375 -15.75 L -1.34375 -5.640625 C -0.5625 -5.015625 0.171875 -4.707031 0.859375 -4.71875 C 1.546875 -4.738281 2.082031 -5.019531 2.46875 -5.5625 C 2.851562 -6.113281 2.988281 -6.875 2.875 -7.84375 L 3.546875 -7.921875 C 3.640625 -7.117188 3.59375 -6.25 3.40625 -5.3125 C 3.226562 -4.375 2.878906 -3.582031 2.359375 -2.9375 C 1.910156 -2.382812 1.425781 -2.003906 0.90625 -1.796875 C 0.394531 -1.585938 -0.132812 -1.5 -0.6875 -1.53125 C -1.28125 -1.613281 -1.847656 -1.804688 -2.390625 -2.109375 C -2.929688 -2.410156 -3.4375 -2.753906 -3.90625 -3.140625 L -16.171875 -12.96875 L -18.15625 -10.5 Z M -18.65625 -10.90625 "/></g></g></g><g fill="#242121" fill-opacity="1"><g transform="translate(53.658492, 100.664975)"><g><path d="M -14.609375 -15.671875 L -12 -18.09375 L 2.609375 -2.421875 L 0 0 Z M -16.359375 -20.1875 C -15.992188 -20.519531 -15.566406 -20.675781 -15.078125 -20.65625 C -14.597656 -20.632812 -14.191406 -20.445312 -13.859375 -20.09375 C -13.535156 -19.738281 -13.375 -19.3125 -13.375 -18.8125 C -13.382812 -18.320312 -13.570312 -17.910156 -13.9375 -17.578125 C -14.289062 -17.253906 -14.71875 -17.097656 -15.21875 -17.109375 C -15.726562 -17.128906 -16.144531 -17.316406 -16.46875 -17.671875 C -16.800781 -18.023438 -16.953125 -18.453125 -16.921875 -18.953125 C -16.898438 -19.453125 -16.710938 -19.863281 -16.359375 -20.1875 Z M -16.359375 -20.1875 "/></g></g></g><g fill="#242121" fill-opacity="1"><g transform="translate(79.270438, 78.86842)"><g><path d="M -17.625 -26.875 L -14.640625 -28.828125 L -6.578125 -16.53125 C -6.296875 -18.082031 -5.785156 -19.5625 -5.046875 -20.96875 C -4.316406 -22.375 -3.285156 -23.515625 -1.953125 -24.390625 C -0.472656 -25.359375 0.984375 -25.800781 2.421875 -25.71875 C 3.859375 -25.632812 5.203125 -25.175781 6.453125 -24.34375 C 7.703125 -23.507812 8.78125 -22.398438 9.6875 -21.015625 C 11.039062 -18.953125 11.878906 -16.925781 12.203125 -14.9375 C 12.535156 -12.957031 12.28125 -11.082031 11.4375 -9.3125 C 10.59375 -7.550781 9.082031 -5.957031 6.90625 -4.53125 L 0 0 Z M -5.46875 -14.84375 L 2.390625 -2.859375 C 2.898438 -3.066406 3.4375 -3.316406 4 -3.609375 C 4.570312 -3.910156 5.117188 -4.234375 5.640625 -4.578125 C 7.503906 -5.796875 8.675781 -7.210938 9.15625 -8.828125 C 9.644531 -10.441406 9.640625 -12.132812 9.140625 -13.90625 C 8.640625 -15.675781 7.84375 -17.398438 6.75 -19.078125 C 6.039062 -20.148438 5.21875 -21.085938 4.28125 -21.890625 C 3.351562 -22.691406 2.375 -23.25 1.34375 -23.5625 C 0.320312 -23.882812 -0.679688 -23.84375 -1.671875 -23.4375 C -2.660156 -23.039062 -3.550781 -22.148438 -4.34375 -20.765625 C -4.851562 -19.921875 -5.179688 -18.960938 -5.328125 -17.890625 C -5.484375 -16.816406 -5.53125 -15.800781 -5.46875 -14.84375 Z M -5.46875 -14.84375 "/></g></g></g><g fill="#242121" fill-opacity="1"><g transform="translate(122.079083, 54.178008)"><g/></g></g><g fill="#242121" fill-opacity="1"><g transform="translate(155.880361, 41.333769)"><g><path d="M 17.96875 -5.96875 C 17.082031 -5.125 16.082031 -4.410156 14.96875 -3.828125 C 13.851562 -3.253906 12.679688 -2.828125 11.453125 -2.546875 C 9.984375 -2.222656 8.472656 -2.113281 6.921875 -2.21875 C 5.378906 -2.332031 3.941406 -2.734375 2.609375 -3.421875 C 1.273438 -4.109375 0.160156 -5.125 -0.734375 -6.46875 C -1.847656 -8.207031 -2.394531 -10.03125 -2.375 -11.9375 C -2.363281 -13.84375 -1.75 -15.632812 -0.53125 -17.3125 C -0.101562 -17.90625 0.394531 -18.460938 0.96875 -18.984375 C 1.539062 -19.503906 2.144531 -19.992188 2.78125 -20.453125 L 1.78125 -21.421875 C 1.175781 -21.984375 0.625 -22.597656 0.125 -23.265625 C -0.375 -23.941406 -0.753906 -24.6875 -1.015625 -25.5 C -1.484375 -26.90625 -1.523438 -28.1875 -1.140625 -29.34375 C -0.753906 -30.507812 -0.0664062 -31.488281 0.921875 -32.28125 C 1.921875 -33.070312 3.101562 -33.617188 4.46875 -33.921875 C 5.445312 -34.140625 6.445312 -34.15625 7.46875 -33.96875 C 8.488281 -33.789062 9.382812 -33.394531 10.15625 -32.78125 C 10.9375 -32.175781 11.453125 -31.332031 11.703125 -30.25 C 11.972656 -29 11.832031 -27.875 11.28125 -26.875 C 10.726562 -25.882812 9.972656 -25 9.015625 -24.21875 C 8.066406 -23.445312 7.132812 -22.738281 6.21875 -22.09375 L 19.65625 -9.34375 C 20.195312 -10.394531 20.550781 -11.492188 20.71875 -12.640625 C 20.894531 -13.796875 20.910156 -14.972656 20.765625 -16.171875 C 20.503906 -18.003906 19.75 -19.484375 18.5 -20.609375 C 17.25 -21.742188 15.785156 -22.609375 14.109375 -23.203125 L 16.109375 -25.109375 C 17.234375 -24.171875 18.273438 -23.03125 19.234375 -21.6875 C 20.203125 -20.351562 20.847656 -18.96875 21.171875 -17.53125 C 21.503906 -16.019531 21.597656 -14.53125 21.453125 -13.0625 C 21.316406 -11.601562 20.882812 -10.191406 20.15625 -8.828125 L 23.890625 -5.3125 L 21.75 -4.84375 C 20.96875 -4.664062 20.351562 -4.625 19.90625 -4.71875 C 19.46875 -4.8125 18.9375 -5.140625 18.3125 -5.703125 Z M 5.671875 -22.59375 C 6.835938 -23.550781 7.75 -24.644531 8.40625 -25.875 C 9.070312 -27.113281 9.179688 -28.53125 8.734375 -30.125 C 8.492188 -31.09375 8.054688 -31.84375 7.421875 -32.375 C 6.785156 -32.90625 6.078125 -33.203125 5.296875 -33.265625 C 4.515625 -33.328125 3.75 -33.128906 3 -32.671875 C 2.101562 -32.117188 1.550781 -31.425781 1.34375 -30.59375 C 1.132812 -29.757812 1.175781 -28.90625 1.46875 -28.03125 C 1.757812 -27.15625 2.171875 -26.351562 2.703125 -25.625 C 3.128906 -25.09375 3.609375 -24.566406 4.140625 -24.046875 C 4.679688 -23.535156 5.191406 -23.050781 5.671875 -22.59375 Z M 17.53125 -6.453125 L 3.265625 -20 C 2.097656 -19.15625 1.3125 -18.039062 0.90625 -16.65625 C 0.507812 -15.28125 0.429688 -13.859375 0.671875 -12.390625 C 0.910156 -10.921875 1.390625 -9.625 2.109375 -8.5 C 3.429688 -6.476562 5.148438 -5.101562 7.265625 -4.375 C 9.390625 -3.65625 11.613281 -3.671875 13.9375 -4.421875 C 15.320312 -4.878906 16.519531 -5.554688 17.53125 -6.453125 Z M 17.53125 -6.453125 "/></g></g></g><g fill="#242121" fill-opacity="1"><g transform="translate(210.010558, 32.611956)"><g/></g></g><g fill="#242121" fill-opacity="1"><g transform="translate(246.443041, 33.335561)"><g><path d="M -0.65625 -21.609375 C 0.425781 -21.484375 1.445312 -21.628906 2.40625 -22.046875 C 3.375 -22.460938 4.1875 -23.078125 4.84375 -23.890625 C 5.507812 -24.710938 5.90625 -25.628906 6.03125 -26.640625 L 6.703125 -26.546875 L 6.03125 -20.8125 L 10.125 -20.34375 L 10.046875 -19.703125 L 5.953125 -20.171875 L 4.0625 -4.125 C 3.945312 -3.132812 4.078125 -2.347656 4.453125 -1.765625 C 4.835938 -1.191406 5.363281 -0.890625 6.03125 -0.859375 C 6.695312 -0.828125 7.414062 -1.113281 8.1875 -1.71875 L 8.578125 -1.1875 C 7.960938 -0.6875 7.207031 -0.269531 6.3125 0.0625 C 5.425781 0.40625 4.566406 0.53125 3.734375 0.4375 C 3.035156 0.351562 2.457031 0.148438 2 -0.171875 C 1.550781 -0.503906 1.195312 -0.910156 0.9375 -1.390625 C 0.6875 -1.941406 0.546875 -2.523438 0.515625 -3.140625 C 0.492188 -3.765625 0.515625 -4.378906 0.578125 -4.984375 L 2.421875 -20.59375 L -0.734375 -20.96875 Z M -0.65625 -21.609375 "/></g></g></g><g fill="#242121" fill-opacity="1"><g transform="translate(282.650562, 39.302934)"><g><path d="M 8.640625 -13.640625 C 9.140625 -12.734375 9.769531 -11.863281 10.53125 -11.03125 C 11.300781 -10.207031 12.171875 -9.53125 13.140625 -9 C 14.109375 -8.46875 15.128906 -8.179688 16.203125 -8.140625 C 17.140625 -8.085938 17.929688 -8.289062 18.578125 -8.75 C 19.222656 -9.21875 19.6875 -9.816406 19.96875 -10.546875 C 20.25 -11.273438 20.34375 -12.039062 20.25 -12.84375 C 20.15625 -13.65625 19.832031 -14.394531 19.28125 -15.0625 C 18.738281 -15.738281 17.945312 -16.234375 16.90625 -16.546875 C 15.320312 -17.023438 13.796875 -16.960938 12.328125 -16.359375 C 10.867188 -15.765625 9.640625 -14.859375 8.640625 -13.640625 Z M 15.1875 -6.875 C 13.75 -7.457031 12.410156 -8.3125 11.171875 -9.4375 C 9.929688 -10.570312 8.9375 -11.773438 8.1875 -13.046875 C 7.34375 -11.804688 6.75 -10.421875 6.40625 -8.890625 C 6.0625 -7.359375 6.007812 -5.84375 6.25 -4.34375 C 6.5 -2.851562 7.070312 -1.523438 7.96875 -0.359375 C 8.875 0.804688 10.144531 1.648438 11.78125 2.171875 C 13.144531 2.617188 14.597656 2.734375 16.140625 2.515625 C 17.679688 2.304688 18.976562 1.675781 20.03125 0.625 L 20.328125 0.984375 C 18.898438 2.367188 17.3125 3.203125 15.5625 3.484375 C 13.820312 3.765625 12.132812 3.660156 10.5 3.171875 C 9.1875 2.773438 7.976562 2.15625 6.875 1.3125 C 5.769531 0.476562 4.851562 -0.53125 4.125 -1.71875 C 3.394531 -2.90625 2.921875 -4.226562 2.703125 -5.6875 C 2.484375 -7.144531 2.613281 -8.671875 3.09375 -10.265625 C 3.6875 -12.222656 4.6875 -13.832031 6.09375 -15.09375 C 7.507812 -16.351562 9.148438 -17.1875 11.015625 -17.59375 C 12.878906 -18 14.769531 -17.910156 16.6875 -17.328125 C 18.601562 -16.753906 20.09375 -16.003906 21.15625 -15.078125 C 22.226562 -14.160156 22.9375 -13.191406 23.28125 -12.171875 C 23.625 -11.160156 23.664062 -10.21875 23.40625 -9.34375 C 23.175781 -8.5 22.679688 -7.78125 21.921875 -7.1875 C 21.171875 -6.601562 20.21875 -6.257812 19.0625 -6.15625 C 17.90625 -6.050781 16.613281 -6.289062 15.1875 -6.875 Z M 15.1875 -6.875 "/></g></g></g><g fill="#242121" fill-opacity="1"><g transform="translate(329.094906, 56.108974)"><g><path d="M 10.03125 -18.921875 L 13.171875 -17.25 L 12.3125 -15.625 C 13.664062 -15.5625 15.078125 -15.285156 16.546875 -14.796875 C 18.023438 -14.304688 19.429688 -13.742188 20.765625 -13.109375 C 22.109375 -12.472656 23.257812 -11.898438 24.21875 -11.390625 L 22.546875 -8.21875 C 22.097656 -8.707031 21.484375 -9.328125 20.703125 -10.078125 C 19.921875 -10.835938 19.046875 -11.585938 18.078125 -12.328125 C 17.109375 -13.066406 16.097656 -13.679688 15.046875 -14.171875 C 14.003906 -14.671875 12.96875 -14.914062 11.9375 -14.90625 L 3.140625 1.671875 L 0 0 Z M 10.03125 -18.921875 "/></g></g></g><g fill="#242121" fill-opacity="1"><g transform="translate(368.32501, 79.628993)"><g><path d="M 13.375 -16.734375 L 16.15625 -14.515625 L 15.015625 -13.0625 C 16.316406 -12.738281 17.644531 -12.203125 19 -11.453125 C 20.363281 -10.703125 21.644531 -9.890625 22.84375 -9.015625 C 24.050781 -8.148438 25.078125 -7.378906 25.921875 -6.703125 L 23.6875 -3.890625 C 23.34375 -4.453125 22.851562 -5.175781 22.21875 -6.0625 C 21.59375 -6.945312 20.867188 -7.84375 20.046875 -8.75 C 19.234375 -9.664062 18.359375 -10.460938 17.421875 -11.140625 C 16.492188 -11.816406 15.519531 -12.25 14.5 -12.4375 L 2.78125 2.21875 L 0 0 Z M 13.375 -16.734375 "/></g></g></g><g fill="#242121" fill-opacity="1"><g transform="translate(402.511419, 109.929045)"><g><path d="M 23.546875 5.78125 L 12.65625 14.984375 L 10.359375 12.265625 L 15.859375 7.625 C 14.535156 8.082031 13.171875 8.320312 11.765625 8.34375 C 10.359375 8.375 9.015625 8.132812 7.734375 7.625 C 6.453125 7.125 5.328125 6.304688 4.359375 5.171875 C 3.054688 3.628906 2.460938 1.992188 2.578125 0.265625 C 2.691406 -1.453125 3.535156 -2.976562 5.109375 -4.3125 C 6.046875 -5.101562 7.078125 -5.59375 8.203125 -5.78125 C 9.328125 -5.96875 10.429688 -5.867188 11.515625 -5.484375 C 12.597656 -5.097656 13.523438 -4.445312 14.296875 -3.53125 C 14.941406 -2.769531 15.40625 -2.015625 15.6875 -1.265625 C 15.976562 -0.523438 16.234375 0.195312 16.453125 0.90625 C 16.671875 1.625 17.007812 2.332031 17.46875 3.03125 C 18.09375 3.957031 18.710938 4.335938 19.328125 4.171875 C 19.941406 4.003906 20.582031 3.632812 21.25 3.0625 C 22.800781 1.75 23.6875 0.359375 23.90625 -1.109375 C 24.132812 -2.585938 23.582031 -4.144531 22.25 -5.78125 C 21.757812 -6.414062 21.140625 -7 20.390625 -7.53125 C 19.640625 -8.0625 18.84375 -8.4375 18 -8.65625 C 17.164062 -8.875 16.332031 -8.835938 15.5 -8.546875 C 14.550781 -8.242188 13.835938 -7.601562 13.359375 -6.625 C 12.492188 -7.46875 12.054688 -8.269531 12.046875 -9.03125 C 12.046875 -9.789062 12.328125 -10.410156 12.890625 -10.890625 C 13.460938 -11.367188 14.179688 -11.554688 15.046875 -11.453125 C 15.921875 -11.359375 16.710938 -11.132812 17.421875 -10.78125 C 18.253906 -10.375 19.148438 -9.753906 20.109375 -8.921875 C 21.066406 -8.097656 21.984375 -7.171875 22.859375 -6.140625 C 23.984375 -4.804688 24.863281 -3.460938 25.5 -2.109375 C 26.144531 -0.753906 26.351562 0.582031 26.125 1.90625 C 25.894531 3.226562 25.035156 4.519531 23.546875 5.78125 Z M 19.09375 4.890625 C 18.582031 4.859375 18.101562 4.628906 17.65625 4.203125 C 17.21875 3.785156 16.875 3.367188 16.625 2.953125 C 16.1875 2.203125 15.773438 1.425781 15.390625 0.625 C 15.015625 -0.175781 14.519531 -0.894531 13.90625 -1.53125 C 12.914062 -2.519531 11.800781 -2.957031 10.5625 -2.84375 C 9.332031 -2.726562 8.269531 -2.300781 7.375 -1.5625 C 6.320312 -0.71875 5.679688 0.21875 5.453125 1.25 C 5.222656 2.289062 5.347656 3.289062 5.828125 4.25 C 6.304688 5.207031 7.066406 6 8.109375 6.625 C 9.285156 7.300781 10.535156 7.625 11.859375 7.59375 C 13.179688 7.5625 14.46875 7.296875 15.71875 6.796875 C 16.976562 6.296875 18.101562 5.660156 19.09375 4.890625 Z M 19.09375 4.890625 "/></g></g></g></g></g><g transform="matrix(1, 0, 0, 1, 160, 544)"><g clip-path="url(#fccc4fdca3)"><g fill="#242121" fill-opacity="1"><g transform="translate(12.489662, 24.393389)"><g><path d="M 14.6875 -15.84375 C 15.363281 -15 16.195312 -14.382812 17.1875 -14 C 18.175781 -13.613281 19.191406 -13.476562 20.234375 -13.59375 C 21.273438 -13.71875 22.191406 -14.097656 22.984375 -14.734375 L 23.421875 -14.203125 L 18.90625 -10.59375 L 21.46875 -7.390625 L 20.96875 -6.984375 L 18.40625 -10.1875 L 5.8125 -0.078125 C 5.03125 0.546875 4.570312 1.191406 4.4375 1.859375 C 4.300781 2.535156 4.457031 3.117188 4.90625 3.609375 C 5.351562 4.109375 6.0625 4.414062 7.03125 4.53125 L 6.953125 5.171875 C 6.148438 5.097656 5.3125 4.867188 4.4375 4.484375 C 3.570312 4.097656 2.878906 3.582031 2.359375 2.9375 C 1.910156 2.382812 1.640625 1.832031 1.546875 1.28125 C 1.460938 0.726562 1.5 0.1875 1.65625 -0.34375 C 1.851562 -0.90625 2.160156 -1.414062 2.578125 -1.875 C 2.992188 -2.332031 3.4375 -2.753906 3.90625 -3.140625 L 16.171875 -12.96875 L 14.1875 -15.4375 Z M 14.6875 -15.84375 "/></g></g></g><g fill="#242121" fill-opacity="1"><g transform="translate(38.922841, 53.874584)"><g><path d="M 14.609375 -15.671875 L 17.21875 -13.25 L 2.609375 2.421875 L 0 0 Z M 18.984375 -17.75 C 19.347656 -17.414062 19.535156 -17.003906 19.546875 -16.515625 C 19.566406 -16.023438 19.410156 -15.601562 19.078125 -15.25 C 18.753906 -14.894531 18.34375 -14.703125 17.84375 -14.671875 C 17.351562 -14.648438 16.925781 -14.804688 16.5625 -15.140625 C 16.207031 -15.460938 16.019531 -15.875 16 -16.375 C 15.988281 -16.882812 16.144531 -17.316406 16.46875 -17.671875 C 16.800781 -18.023438 17.210938 -18.207031 17.703125 -18.21875 C 18.203125 -18.226562 18.628906 -18.070312 18.984375 -17.75 Z M 18.984375 -17.75 "/></g></g></g><g fill="#242121" fill-opacity="1"><g transform="translate(66.970667, 77.582476)"><g><path d="M 17.625 -26.875 L 20.609375 -24.921875 L 12.546875 -12.625 C 14.078125 -12.988281 15.628906 -13.113281 17.203125 -13 C 18.785156 -12.882812 20.242188 -12.390625 21.578125 -11.515625 C 23.054688 -10.546875 24.046875 -9.382812 24.546875 -8.03125 C 25.046875 -6.675781 25.160156 -5.257812 24.890625 -3.78125 C 24.617188 -2.300781 24.03125 -0.867188 23.125 0.515625 C 21.769531 2.578125 20.25 4.148438 18.5625 5.234375 C 16.882812 6.328125 15.066406 6.835938 13.109375 6.765625 C 11.148438 6.703125 9.082031 5.957031 6.90625 4.53125 L 0 0 Z M 11.4375 -10.9375 L 3.578125 1.046875 C 3.960938 1.441406 4.40625 1.835938 4.90625 2.234375 C 5.414062 2.640625 5.929688 3.015625 6.453125 3.359375 C 8.316406 4.578125 10.082031 5.085938 11.75 4.890625 C 13.425781 4.691406 14.976562 4.007812 16.40625 2.84375 C 17.832031 1.675781 19.09375 0.253906 20.1875 -1.421875 C 20.894531 -2.492188 21.425781 -3.617188 21.78125 -4.796875 C 22.144531 -5.972656 22.265625 -7.09375 22.140625 -8.15625 C 22.023438 -9.226562 21.585938 -10.132812 20.828125 -10.875 C 20.066406 -11.625 18.894531 -12.085938 17.3125 -12.265625 C 16.34375 -12.398438 15.332031 -12.320312 14.28125 -12.03125 C 13.238281 -11.738281 12.289062 -11.375 11.4375 -10.9375 Z M 11.4375 -10.9375 "/></g></g></g><g fill="#242121" fill-opacity="1"><g transform="translate(112.591151, 103.782622)"><g/></g></g><g fill="#242121" fill-opacity="1"><g transform="translate(149.617524, 117.664984)"><g><path d="M 18.8125 2.21875 C 17.65625 2.601562 16.445312 2.820312 15.1875 2.875 C 13.925781 2.9375 12.679688 2.828125 11.453125 2.546875 C 9.984375 2.222656 8.566406 1.679688 7.203125 0.921875 C 5.847656 0.171875 4.710938 -0.796875 3.796875 -1.984375 C 2.878906 -3.171875 2.304688 -4.5625 2.078125 -6.15625 C 1.796875 -8.207031 2.066406 -10.09375 2.890625 -11.8125 C 3.722656 -13.53125 5.050781 -14.894531 6.875 -15.90625 C 7.507812 -16.25 8.195312 -16.535156 8.9375 -16.765625 C 9.675781 -16.992188 10.425781 -17.179688 11.1875 -17.328125 L 10.6875 -18.640625 C 10.394531 -19.410156 10.164062 -20.203125 10 -21.015625 C 9.832031 -21.835938 9.796875 -22.675781 9.890625 -23.53125 C 10.066406 -25 10.578125 -26.171875 11.421875 -27.046875 C 12.265625 -27.929688 13.300781 -28.523438 14.53125 -28.828125 C 15.769531 -29.128906 17.070312 -29.128906 18.4375 -28.828125 C 19.414062 -28.609375 20.328125 -28.195312 21.171875 -27.59375 C 22.015625 -27 22.660156 -26.257812 23.109375 -25.375 C 23.566406 -24.5 23.671875 -23.519531 23.421875 -22.4375 C 23.148438 -21.1875 22.550781 -20.222656 21.625 -19.546875 C 20.695312 -18.878906 19.632812 -18.394531 18.4375 -18.09375 C 17.25 -17.800781 16.101562 -17.5625 15 -17.375 L 21.75 -0.125 C 22.707031 -0.84375 23.503906 -1.6875 24.140625 -2.65625 C 24.785156 -3.632812 25.296875 -4.691406 25.671875 -5.828125 C 26.203125 -7.597656 26.144531 -9.257812 25.5 -10.8125 C 24.851562 -12.375 23.890625 -13.773438 22.609375 -15.015625 L 25.234375 -15.890625 C 25.859375 -14.578125 26.320312 -13.109375 26.625 -11.484375 C 26.9375 -9.867188 26.929688 -8.34375 26.609375 -6.90625 C 26.273438 -5.394531 25.726562 -4.003906 24.96875 -2.734375 C 24.21875 -1.472656 23.226562 -0.378906 22 0.546875 L 23.890625 5.3125 L 21.75 4.84375 C 20.96875 4.664062 20.394531 4.441406 20.03125 4.171875 C 19.675781 3.898438 19.332031 3.378906 19 2.609375 Z M 14.734375 -18.0625 C 16.191406 -18.4375 17.476562 -19.035156 18.59375 -19.859375 C 19.71875 -20.691406 20.421875 -21.925781 20.703125 -23.5625 C 20.878906 -24.550781 20.796875 -25.421875 20.453125 -26.171875 C 20.109375 -26.921875 19.59375 -27.488281 18.90625 -27.875 C 18.21875 -28.257812 17.445312 -28.398438 16.59375 -28.296875 C 15.53125 -28.179688 14.726562 -27.789062 14.1875 -27.125 C 13.644531 -26.457031 13.320312 -25.664062 13.21875 -24.75 C 13.113281 -23.832031 13.148438 -22.9375 13.328125 -22.0625 C 13.484375 -21.40625 13.691406 -20.722656 13.953125 -20.015625 C 14.222656 -19.316406 14.484375 -18.664062 14.734375 -18.0625 Z M 18.625 1.609375 L 11.453125 -16.71875 C 10.035156 -16.457031 8.847656 -15.785156 7.890625 -14.703125 C 6.941406 -13.628906 6.265625 -12.375 5.859375 -10.9375 C 5.453125 -9.5 5.335938 -8.125 5.515625 -6.8125 C 5.859375 -4.414062 6.832031 -2.4375 8.4375 -0.875 C 10.050781 0.675781 12.070312 1.609375 14.5 1.921875 C 15.945312 2.085938 17.320312 1.984375 18.625 1.609375 Z M 18.625 1.609375 "/></g></g></g><g fill="#242121" fill-opacity="1"><g transform="translate(207.110144, 126.81575)"><g/></g></g><g fill="#242121" fill-opacity="1"><g transform="translate(246.274316, 125.977561)"><g><path d="M -5.65625 -20.859375 C -4.570312 -20.984375 -3.601562 -21.363281 -2.75 -22 C -1.90625 -22.632812 -1.253906 -23.421875 -0.796875 -24.359375 C -0.347656 -25.304688 -0.1875 -26.285156 -0.3125 -27.296875 L 0.359375 -27.390625 L 1.03125 -21.65625 L 5.125 -22.125 L 5.203125 -21.484375 L 1.109375 -21.015625 L 3 -4.96875 C 3.113281 -3.976562 3.421875 -3.242188 3.921875 -2.765625 C 4.429688 -2.296875 5.015625 -2.117188 5.671875 -2.234375 C 6.328125 -2.347656 6.957031 -2.789062 7.5625 -3.5625 L 8.078125 -3.15625 C 7.585938 -2.507812 6.945312 -1.914062 6.15625 -1.375 C 5.375 -0.84375 4.566406 -0.53125 3.734375 -0.4375 C 3.035156 -0.351562 2.425781 -0.414062 1.90625 -0.625 C 1.394531 -0.84375 0.957031 -1.160156 0.59375 -1.578125 C 0.21875 -2.046875 -0.0507812 -2.578125 -0.21875 -3.171875 C -0.394531 -3.773438 -0.515625 -4.378906 -0.578125 -4.984375 L -2.421875 -20.59375 L -5.578125 -20.21875 Z M -5.65625 -20.859375 "/></g></g></g><g fill="#242121" fill-opacity="1"><g transform="translate(285.627155, 119.355957)"><g><path d="M -0.359375 -16.140625 C 0.554688 -15.671875 1.5625 -15.300781 2.65625 -15.03125 C 3.757812 -14.769531 4.863281 -14.6875 5.96875 -14.78125 C 7.070312 -14.875 8.078125 -15.191406 8.984375 -15.734375 C 9.796875 -16.222656 10.34375 -16.835938 10.625 -17.578125 C 10.90625 -18.328125 10.960938 -19.082031 10.796875 -19.84375 C 10.628906 -20.601562 10.28125 -21.289062 9.75 -21.90625 C 9.21875 -22.53125 8.535156 -22.96875 7.703125 -23.21875 C 6.878906 -23.476562 5.945312 -23.453125 4.90625 -23.140625 C 3.320312 -22.660156 2.085938 -21.765625 1.203125 -20.453125 C 0.328125 -19.148438 -0.191406 -17.710938 -0.359375 -16.140625 Z M 8.84375 -14.125 C 7.320312 -13.8125 5.734375 -13.785156 4.078125 -14.046875 C 2.421875 -14.316406 0.925781 -14.765625 -0.40625 -15.390625 C -0.414062 -13.898438 -0.140625 -12.421875 0.421875 -10.953125 C 0.984375 -9.484375 1.773438 -8.191406 2.796875 -7.078125 C 3.828125 -5.972656 5.039062 -5.1875 6.4375 -4.71875 C 7.84375 -4.25 9.363281 -4.242188 11 -4.703125 C 12.382812 -5.085938 13.660156 -5.789062 14.828125 -6.8125 C 15.992188 -7.84375 16.726562 -9.09375 17.03125 -10.5625 L 17.484375 -10.421875 C 17.054688 -8.472656 16.191406 -6.898438 14.890625 -5.703125 C 13.597656 -4.503906 12.132812 -3.660156 10.5 -3.171875 C 9.1875 -2.773438 7.835938 -2.617188 6.453125 -2.703125 C 5.066406 -2.796875 3.742188 -3.132812 2.484375 -3.71875 C 1.222656 -4.300781 0.0976562 -5.140625 -0.890625 -6.234375 C -1.878906 -7.328125 -2.613281 -8.671875 -3.09375 -10.265625 C -3.6875 -12.222656 -3.742188 -14.117188 -3.265625 -15.953125 C -2.796875 -17.785156 -1.894531 -19.382812 -0.5625 -20.75 C 0.769531 -22.113281 2.394531 -23.085938 4.3125 -23.671875 C 6.226562 -24.242188 7.878906 -24.441406 9.265625 -24.265625 C 10.660156 -24.097656 11.785156 -23.6875 12.640625 -23.03125 C 13.492188 -22.382812 14.050781 -21.625 14.3125 -20.75 C 14.601562 -19.90625 14.59375 -19.023438 14.28125 -18.109375 C 13.976562 -17.203125 13.375 -16.390625 12.46875 -15.671875 C 11.5625 -14.953125 10.351562 -14.4375 8.84375 -14.125 Z M 8.84375 -14.125 "/></g></g></g><g fill="#242121" fill-opacity="1"><g transform="translate(335.346105, 101.199445)"><g><path d="M -10.03125 -18.921875 L -6.890625 -20.59375 L -6.03125 -18.96875 C -5.21875 -20.050781 -4.191406 -21.0625 -2.953125 -22 C -1.722656 -22.9375 -0.472656 -23.785156 0.796875 -24.546875 C 2.078125 -25.304688 3.195312 -25.941406 4.15625 -26.453125 L 5.828125 -23.28125 C 5.171875 -23.1875 4.3125 -23.023438 3.25 -22.796875 C 2.1875 -22.578125 1.078125 -22.273438 -0.078125 -21.890625 C -1.234375 -21.503906 -2.304688 -21.015625 -3.296875 -20.421875 C -4.296875 -19.835938 -5.082031 -19.113281 -5.65625 -18.25 L 3.140625 -1.671875 L 0 0 Z M -10.03125 -18.921875 "/></g></g></g><g fill="#242121" fill-opacity="1"><g transform="translate(377.424378, 75.811212)"><g><path d="M -13.375 -16.734375 L -10.59375 -18.953125 L -9.453125 -17.5 C -8.859375 -18.71875 -8.039062 -19.90625 -7 -21.0625 C -5.96875 -22.21875 -4.890625 -23.285156 -3.765625 -24.265625 C -2.648438 -25.253906 -1.671875 -26.085938 -0.828125 -26.765625 L 1.40625 -23.953125 C 0.769531 -23.742188 -0.0390625 -23.429688 -1.03125 -23.015625 C -2.03125 -22.597656 -3.0625 -22.085938 -4.125 -21.484375 C -5.195312 -20.890625 -6.164062 -20.210938 -7.03125 -19.453125 C -7.90625 -18.691406 -8.539062 -17.832031 -8.9375 -16.875 L 2.78125 -2.21875 L 0 0 Z M -13.375 -16.734375 "/></g></g></g><g fill="#242121" fill-opacity="1"><g transform="translate(414.151109, 43.035095)"><g><path d="M 1.765625 -24.1875 L 12.65625 -14.984375 L 10.359375 -12.265625 L 4.859375 -16.90625 C 5.535156 -15.675781 6.003906 -14.367188 6.265625 -12.984375 C 6.523438 -11.609375 6.515625 -10.242188 6.234375 -8.890625 C 5.953125 -7.546875 5.328125 -6.304688 4.359375 -5.171875 C 3.054688 -3.628906 1.546875 -2.765625 -0.171875 -2.578125 C -1.890625 -2.398438 -3.535156 -2.976562 -5.109375 -4.3125 C -6.046875 -5.101562 -6.703125 -6.039062 -7.078125 -7.125 C -7.453125 -8.207031 -7.539062 -9.3125 -7.34375 -10.4375 C -7.144531 -11.5625 -6.660156 -12.582031 -5.890625 -13.5 C -5.242188 -14.257812 -4.570312 -14.84375 -3.875 -15.25 C -3.1875 -15.664062 -2.507812 -16.035156 -1.84375 -16.359375 C -1.175781 -16.691406 -0.539062 -17.144531 0.0625 -17.71875 C 0.875 -18.5 1.144531 -19.175781 0.875 -19.75 C 0.601562 -20.320312 0.132812 -20.894531 -0.53125 -21.46875 C -2.082031 -22.78125 -3.601562 -23.421875 -5.09375 -23.390625 C -6.59375 -23.367188 -8.039062 -22.5625 -9.4375 -20.96875 C -9.96875 -20.375 -10.429688 -19.664062 -10.828125 -18.84375 C -11.222656 -18.019531 -11.457031 -17.175781 -11.53125 -16.3125 C -11.613281 -15.445312 -11.445312 -14.628906 -11.03125 -13.859375 C -10.5625 -12.972656 -9.804688 -12.375 -8.765625 -12.0625 C -9.460938 -11.070312 -10.179688 -10.507812 -10.921875 -10.375 C -11.671875 -10.238281 -12.328125 -10.410156 -12.890625 -10.890625 C -13.460938 -11.367188 -13.769531 -12.046875 -13.8125 -12.921875 C -13.863281 -13.804688 -13.773438 -14.625 -13.546875 -15.375 C -13.273438 -16.257812 -12.8125 -17.242188 -12.15625 -18.328125 C -11.5 -19.421875 -10.734375 -20.484375 -9.859375 -21.515625 C -8.734375 -22.847656 -7.554688 -23.941406 -6.328125 -24.796875 C -5.109375 -25.648438 -3.828125 -26.078125 -2.484375 -26.078125 C -1.140625 -26.078125 0.273438 -25.445312 1.765625 -24.1875 Z M 1.625 -19.640625 C 1.675781 -19.128906 1.53125 -18.617188 1.1875 -18.109375 C 0.851562 -17.609375 0.5 -17.203125 0.125 -16.890625 C -0.539062 -16.328125 -1.234375 -15.789062 -1.953125 -15.28125 C -2.679688 -14.769531 -3.3125 -14.15625 -3.84375 -13.4375 C -4.644531 -12.300781 -4.882812 -11.140625 -4.5625 -9.953125 C -4.25 -8.765625 -3.65625 -7.78125 -2.78125 -7 C -1.769531 -6.113281 -0.734375 -5.640625 0.328125 -5.578125 C 1.390625 -5.523438 2.351562 -5.816406 3.21875 -6.453125 C 4.082031 -7.085938 4.734375 -7.96875 5.171875 -9.09375 C 5.640625 -10.375 5.75 -11.664062 5.5 -12.96875 C 5.25 -14.269531 4.769531 -15.492188 4.0625 -16.640625 C 3.363281 -17.785156 2.550781 -18.785156 1.625 -19.640625 Z M 1.625 -19.640625 "/></g></g></g></g></g><g transform="matrix(1, 0, 0, 1, 450, 258)"><g clip-path="url(#dd13b449f3)"><g fill="#242121" fill-opacity="1"><g transform="translate(21.334094, 185.070601)"><g><path d="M -18.484375 -124.640625 C -12.148438 -124.640625 -6.316406 -126.175781 -0.984375 -129.25 C 4.335938 -132.332031 8.617188 -136.453125 11.859375 -141.609375 C 15.109375 -146.773438 16.734375 -152.351562 16.734375 -158.34375 L 20.734375 -158.34375 L 20.734375 -124.640625 L 44.703125 -124.640625 L 44.703125 -120.890625 L 20.734375 -120.890625 L 20.734375 -26.71875 C 20.734375 -20.894531 22.019531 -16.441406 24.59375 -13.359375 C 27.175781 -10.273438 30.425781 -8.859375 34.34375 -9.109375 C 38.257812 -9.359375 42.210938 -11.484375 46.203125 -15.484375 L 48.953125 -12.734375 C 45.617188 -9.410156 41.492188 -6.457031 36.578125 -3.875 C 31.671875 -1.289062 26.804688 0 21.984375 0 C 17.816406 0 14.316406 -0.789062 11.484375 -2.375 C 8.660156 -3.957031 6.332031 -6.078125 4.5 -8.734375 C 2.664062 -11.734375 1.457031 -15.023438 0.875 -18.609375 C 0.289062 -22.191406 0 -25.726562 0 -29.21875 L 0 -120.890625 L -18.484375 -120.890625 Z M -18.484375 -124.640625 "/></g></g></g></g></g><g transform="matrix(1, 0, 0, 1, 211, 258)"><g clip-path="url(#34c604ab10)"><g fill="#242121" fill-opacity="1"><g transform="translate(21.045095, 185.070601)"><g><path d="M -18.484375 -124.640625 C -12.148438 -124.640625 -6.316406 -126.175781 -0.984375 -129.25 C 4.335938 -132.332031 8.617188 -136.453125 11.859375 -141.609375 C 15.109375 -146.773438 16.734375 -152.351562 16.734375 -158.34375 L 20.734375 -158.34375 L 20.734375 -124.640625 L 44.703125 -124.640625 L 44.703125 -120.890625 L 20.734375 -120.890625 L 20.734375 -26.71875 C 20.734375 -20.894531 22.019531 -16.441406 24.59375 -13.359375 C 27.175781 -10.273438 30.425781 -8.859375 34.34375 -9.109375 C 38.257812 -9.359375 42.210938 -11.484375 46.203125 -15.484375 L 48.953125 -12.734375 C 45.617188 -9.410156 41.492188 -6.457031 36.578125 -3.875 C 31.671875 -1.289062 26.804688 0 21.984375 0 C 17.816406 0 14.316406 -0.789062 11.484375 -2.375 C 8.660156 -3.957031 6.332031 -6.078125 4.5 -8.734375 C 2.664062 -11.734375 1.457031 -15.023438 0.875 -18.609375 C 0.289062 -22.191406 0 -25.726562 0 -29.21875 L 0 -120.890625 L -18.484375 -120.890625 Z M -18.484375 -124.640625 "/></g></g></g></g></g><path stroke-linecap="butt" transform="matrix(0, -0.75, 0.75, 0, 380.794232, 542.351057)" fill="none" stroke-linejoin="miter" d="M -0.00067378 3.498316 L 421.853514 3.498316 " stroke="#303030" stroke-width="7" stroke-opacity="1" stroke-miterlimit="4"/></svg>